<svg width="384" height="384" viewBox="0 0 384 384" fill="none" xmlns="http://www.w3.org/2000/svg">
<path d="M353.981 0H29.5146C13.2141 0 0 13.2141 0 29.5146V353.981C0 370.281 13.2141 383.495 29.5146 383.495H353.981C370.281 383.495 383.495 370.281 383.495 353.981V29.5146C383.495 13.2141 370.281 0 353.981 0Z" fill="#FFDD00"/>
<path d="M251.481 275.971V96.699C251.481 94.9029 251.481 94.9029 249.636 94.9029H124.49C124.15 94.9029 123.786 94.9272 123.228 94.9757V131.286C123.228 137.549 119.466 142.5 113.568 144.15C105.485 146.408 97.1116 140.267 97.0388 131.845C96.9417 119.199 96.9174 106.553 97.0388 93.932C97.1601 82.0388 106.408 71.335 118.155 69.2233C119.927 68.9078 121.748 68.7379 123.544 68.7379C166.068 68.7136 208.568 68.7136 251.092 68.7379C263.422 68.7379 273.616 76.4078 276.723 88.1796C277.379 90.6311 277.67 93.2282 277.67 95.7767C277.718 154.15 277.718 212.524 277.694 270.922C277.694 273.932 277.743 276.942 277.427 279.903C276.408 289.903 268.01 299.248 258.228 301.578C252.112 303.034 246.238 302.524 240.51 299.951C230 295.218 219.514 290.485 208.956 285.825C207.84 285.316 206.481 285.097 205.243 285.097C162.864 285.049 120.485 285.073 78.1067 285.073C72.6213 285.073 67.4999 283.762 62.9854 280.583C55.631 275.437 51.5291 268.374 51.5048 259.32C51.432 233.422 51.5048 207.524 51.4562 181.626C51.4562 178.835 51.2621 176.092 52.3543 173.447C54.3446 168.641 59.563 165.437 64.1261 165.437C104.029 165.51 143.932 165.51 183.835 165.437C189.709 165.437 195.631 169.83 196.65 176.286C197.718 183.083 193.883 189.223 187.427 191.019C185.704 191.505 183.859 191.675 182.063 191.675C148.252 191.723 114.442 191.699 80.631 191.699C80.097 191.699 79.563 191.748 79.0533 191.699C77.8397 191.553 77.5727 192.112 77.5727 193.228C77.6213 200.922 77.5727 208.617 77.5727 216.286V256.845C77.5727 258.786 77.5727 258.786 79.563 258.786C122.476 258.786 165.388 258.786 208.301 258.762C211.869 258.762 215.097 259.442 218.325 261.092C224.005 263.956 229.879 266.359 235.68 268.956C240.437 271.092 245.194 273.204 249.951 275.34C250.34 275.51 250.752 275.68 251.432 275.971H251.481ZM335.922 191.723V296.578C335.922 303.083 332.112 308.034 325.874 309.66C318.107 311.699 310.121 305.728 309.806 297.646V86.8689C309.806 81.335 312.209 77.2087 317.112 74.7816C325.728 70.4854 335.752 76.699 335.922 86.335C335.971 89.2476 335.922 92.1602 335.922 95.0728V191.699V191.723Z" fill="#303863"/>
</svg>
